<svg width="128" height="17" viewBox="0 0 128 17" fill="none" xmlns="http://www.w3.org/2000/svg">
<path d="M11.895 9.26367C11.895 9.68978 11.8397 10.0744 11.729 10.4175C11.6239 10.755 11.4827 11.0539 11.3057 11.314C11.1286 11.5741 10.9211 11.7954 10.6831 11.978C10.4451 12.1606 10.1989 12.3101 9.94434 12.4263C9.68978 12.5425 9.42969 12.6283 9.16406 12.6836C8.90397 12.7389 8.65771 12.7666 8.42529 12.7666H0.0996094V10.6084H8.42529C8.84033 10.6084 9.1613 10.4867 9.38818 10.2432C9.62061 9.99967 9.73682 9.67318 9.73682 9.26367C9.73682 9.06445 9.70638 8.88184 9.64551 8.71582C9.58464 8.5498 9.49609 8.40592 9.37988 8.28418C9.26921 8.16243 9.13086 8.06836 8.96484 8.00195C8.80436 7.93555 8.62451 7.90234 8.42529 7.90234H3.46143C3.11279 7.90234 2.73649 7.84147 2.33252 7.71973C1.92855 7.59245 1.55225 7.39046 1.20361 7.11377C0.860514 6.83708 0.572754 6.47461 0.340332 6.02637C0.113444 5.57812 0 5.03027 0 4.38281C0 3.73535 0.113444 3.19027 0.340332 2.74756C0.572754 2.29932 0.860514 1.93685 1.20361 1.66016C1.55225 1.37793 1.92855 1.17594 2.33252 1.0542C2.73649 0.926921 3.11279 0.863281 3.46143 0.863281H10.8076V3.02148H3.46143C3.05192 3.02148 2.73096 3.146 2.49854 3.39502C2.27165 3.64404 2.1582 3.97331 2.1582 4.38281C2.1582 4.79785 2.27165 5.12712 2.49854 5.37061C2.73096 5.60856 3.05192 5.72754 3.46143 5.72754H8.42529H8.44189C8.67432 5.73307 8.92057 5.76628 9.18066 5.82715C9.44076 5.88249 9.69808 5.97103 9.95264 6.09277C10.2127 6.21452 10.459 6.36947 10.6914 6.55762C10.9238 6.74023 11.1286 6.96159 11.3057 7.22168C11.4883 7.48177 11.6322 7.7806 11.7373 8.11816C11.8424 8.45573 11.895 8.83757 11.895 9.26367ZM23.9893 12.7666H20.8765L16.5269 8.56641C16.2834 8.34505 16.1699 8.06836 16.1865 7.73633C16.1976 7.58138 16.2363 7.4375 16.3027 7.30469C16.3747 7.16634 16.4715 7.05013 16.5933 6.95605L20.5361 3.77686H23.9893L18.9092 7.86914L23.9893 12.7666ZM15.6387 12.7666H13.4805V0H15.6387V12.7666ZM35.0957 13.6299C35.0957 14.0007 35.0487 14.3327 34.9546 14.626C34.8605 14.9248 34.736 15.1849 34.5811 15.4062C34.4261 15.6331 34.2463 15.8241 34.0415 15.979C33.8368 16.1395 33.6209 16.2695 33.394 16.3691C33.1727 16.4688 32.9486 16.5407 32.7217 16.585C32.4948 16.6348 32.279 16.6597 32.0742 16.6597H28.1812V14.5015H32.0742C32.362 14.5015 32.5778 14.4268 32.7217 14.2773C32.8656 14.1279 32.9375 13.9121 32.9375 13.6299V3.79346H35.0957V13.6299ZM32.0742 12.7666H28.1812C27.8713 12.7666 27.5392 12.714 27.1851 12.6089C26.8364 12.5037 26.5099 12.3322 26.2056 12.0942C25.9012 11.8507 25.6494 11.5381 25.4502 11.1562C25.251 10.7689 25.1514 10.2957 25.1514 9.73682V3.79346H27.3096V9.73682C27.3096 10.019 27.3843 10.2349 27.5337 10.3843C27.6831 10.5337 27.9045 10.6084 28.1978 10.6084H32.0742V12.7666ZM52.5938 0.863281L50.6016 12.0195C50.5573 12.2409 50.4577 12.4318 50.3027 12.5923C50.1478 12.7528 49.9596 12.8551 49.7383 12.8994C49.5114 12.9382 49.2956 12.9132 49.0908 12.8247C48.8916 12.7362 48.7339 12.5978 48.6177 12.4097L44.6665 5.91846L40.707 12.4097C40.613 12.5701 40.4829 12.6947 40.3169 12.7832C40.1564 12.8717 39.9821 12.916 39.7939 12.916C39.5339 12.916 39.3042 12.833 39.105 12.667C38.9058 12.501 38.784 12.2852 38.7397 12.0195L36.731 0.863281H38.9224L40.3501 8.72412L43.7534 3.29541C43.8475 3.13493 43.9748 3.01042 44.1353 2.92188C44.3013 2.83333 44.4784 2.78906 44.6665 2.78906C44.8547 2.78906 45.029 2.83333 45.1895 2.92188C45.3499 3.01042 45.4827 3.13493 45.5879 3.29541L48.9746 8.72412L50.4023 0.863281H52.5938ZM64.1318 12.7666H61.9736V6.81494C61.9736 6.53271 61.9017 6.31966 61.7578 6.17578C61.6139 6.02637 61.3981 5.95166 61.1104 5.95166H57.2173V3.79346H61.1104C61.3151 3.79346 61.5309 3.81836 61.7578 3.86816C61.9847 3.91243 62.2088 3.98438 62.4302 4.08398C62.6571 4.18359 62.8729 4.31364 63.0776 4.47412C63.2824 4.62907 63.4622 4.81999 63.6172 5.04688C63.7721 5.26823 63.8966 5.52555 63.9907 5.81885C64.0848 6.11214 64.1318 6.44417 64.1318 6.81494V12.7666ZM56.3457 12.7666H54.1875V0H56.3457V12.7666ZM76.002 13.6299C76.002 14.0007 75.9549 14.3327 75.8608 14.626C75.7668 14.9248 75.6423 15.1849 75.4873 15.4062C75.3324 15.6331 75.1525 15.8241 74.9478 15.979C74.743 16.1395 74.5272 16.2695 74.3003 16.3691C74.0789 16.4688 73.8548 16.5407 73.6279 16.585C73.401 16.6348 73.1852 16.6597 72.9805 16.6597H69.0874V14.5015H72.9805C73.2682 14.5015 73.484 14.4268 73.6279 14.2773C73.7718 14.1279 73.8438 13.9121 73.8438 13.6299V3.79346H76.002V13.6299ZM72.9805 12.7666H69.0874C68.7775 12.7666 68.4455 12.714 68.0913 12.6089C67.7427 12.5037 67.4162 12.3322 67.1118 12.0942C66.8075 11.8507 66.5557 11.5381 66.3564 11.1562C66.1572 10.7689 66.0576 10.2957 66.0576 9.73682V3.79346H68.2158V9.73682C68.2158 10.019 68.2905 10.2349 68.4399 10.3843C68.5894 10.5337 68.8107 10.6084 69.104 10.6084H72.9805V12.7666ZM89.7397 9.26367C89.7397 9.68978 89.6844 10.0744 89.5737 10.4175C89.4686 10.755 89.3275 11.0539 89.1504 11.314C88.9733 11.5741 88.7658 11.7954 88.5278 11.978C88.2899 12.1606 88.0436 12.3101 87.7891 12.4263C87.5345 12.5425 87.2744 12.6283 87.0088 12.6836C86.7487 12.7389 86.5024 12.7666 86.27 12.7666H77.9443V10.6084H86.27C86.6851 10.6084 87.006 10.4867 87.2329 10.2432C87.4653 9.99967 87.5815 9.67318 87.5815 9.26367C87.5815 9.06445 87.5511 8.88184 87.4902 8.71582C87.4294 8.5498 87.3408 8.40592 87.2246 8.28418C87.1139 8.16243 86.9756 8.06836 86.8096 8.00195C86.6491 7.93555 86.4692 7.90234 86.27 7.90234H81.3062C80.9575 7.90234 80.5812 7.84147 80.1772 7.71973C79.7733 7.59245 79.397 7.39046 79.0483 7.11377C78.7052 6.83708 78.4175 6.47461 78.1851 6.02637C77.9582 5.57812 77.8447 5.03027 77.8447 4.38281C77.8447 3.73535 77.9582 3.19027 78.1851 2.74756C78.4175 2.29932 78.7052 1.93685 79.0483 1.66016C79.397 1.37793 79.7733 1.17594 80.1772 1.0542C80.5812 0.926921 80.9575 0.863281 81.3062 0.863281H88.6523V3.02148H81.3062C80.8966 3.02148 80.5757 3.146 80.3433 3.39502C80.1164 3.64404 80.0029 3.97331 80.0029 4.38281C80.0029 4.79785 80.1164 5.12712 80.3433 5.37061C80.5757 5.60856 80.8966 5.72754 81.3062 5.72754H86.27H86.2866C86.519 5.73307 86.7653 5.76628 87.0254 5.82715C87.2855 5.88249 87.5428 5.97103 87.7974 6.09277C88.0575 6.21452 88.3037 6.36947 88.5361 6.55762C88.7686 6.74023 88.9733 6.96159 89.1504 7.22168C89.333 7.48177 89.4769 7.7806 89.582 8.11816C89.6872 8.45573 89.7397 8.83757 89.7397 9.26367ZM100.556 9.79492C100.556 10.0938 100.503 10.4175 100.398 10.7661C100.293 11.1092 100.121 11.4302 99.8833 11.729C99.6509 12.0223 99.3438 12.2686 98.9619 12.4678C98.5856 12.667 98.1263 12.7666 97.584 12.7666H93.6909C93.3921 12.7666 93.0684 12.714 92.7197 12.6089C92.3766 12.5037 92.0557 12.335 91.7568 12.1025C91.4635 11.8646 91.2173 11.5575 91.0181 11.1812C90.8188 10.7993 90.7192 10.3372 90.7192 9.79492C90.7192 9.49609 90.7718 9.17236 90.877 8.82373C90.9821 8.4751 91.1509 8.15413 91.3833 7.86084C91.6213 7.56201 91.9284 7.31299 92.3047 7.11377C92.6865 6.91455 93.1486 6.81494 93.6909 6.81494H97.584V8.87354H93.6909C93.3976 8.87354 93.1707 8.96484 93.0103 9.14746C92.8498 9.32454 92.7695 9.5459 92.7695 9.81152C92.7695 10.0938 92.8608 10.3151 93.0435 10.4756C93.2316 10.6305 93.453 10.708 93.7075 10.708H97.584C97.8773 10.708 98.1042 10.6195 98.2646 10.4424C98.4251 10.2653 98.5054 10.0439 98.5054 9.77832V6.76514C98.5054 6.48291 98.4168 6.25879 98.2397 6.09277C98.0682 5.92676 97.8496 5.84375 97.584 5.84375H92.8442V3.79346H97.584C97.8828 3.79346 98.2038 3.84603 98.5469 3.95117C98.8955 4.05632 99.2165 4.22786 99.5098 4.46582C99.8086 4.69824 100.058 5.00537 100.257 5.38721C100.456 5.76351 100.556 6.22282 100.556 6.76514V9.79492ZM106.341 12.7666H105.378C105.069 12.7666 104.736 12.714 104.382 12.6089C104.034 12.5037 103.707 12.3322 103.403 12.0942C103.098 11.8507 102.847 11.5381 102.647 11.1562C102.448 10.7689 102.349 10.2957 102.349 9.73682V0H104.507V9.73682C104.507 10.0024 104.59 10.2155 104.756 10.376C104.922 10.5309 105.129 10.6084 105.378 10.6084H106.341V12.7666ZM117.381 6.76514C117.381 7.06396 117.329 7.3877 117.224 7.73633C117.118 8.07943 116.947 8.40039 116.709 8.69922C116.477 8.99251 116.169 9.23877 115.788 9.43799C115.411 9.63721 114.952 9.73682 114.41 9.73682H110.517V7.68652H114.41C114.703 7.68652 114.93 7.59798 115.09 7.4209C115.251 7.23828 115.331 7.01416 115.331 6.74854C115.331 6.46631 115.24 6.24495 115.057 6.08447C114.88 5.92399 114.664 5.84375 114.41 5.84375H110.517C110.223 5.84375 109.996 5.93506 109.836 6.11768C109.675 6.29476 109.595 6.51611 109.595 6.78174V9.79492C109.595 10.0827 109.684 10.3068 109.861 10.4673C110.043 10.6278 110.268 10.708 110.533 10.708H114.41V12.7666H110.517C110.218 12.7666 109.894 12.714 109.545 12.6089C109.202 12.5037 108.881 12.335 108.583 12.1025C108.289 11.8646 108.043 11.5575 107.844 11.1812C107.645 10.7993 107.545 10.3372 107.545 9.79492V6.76514C107.545 6.46631 107.597 6.14535 107.703 5.80225C107.808 5.45361 107.977 5.13265 108.209 4.83936C108.447 4.54053 108.754 4.2915 109.13 4.09229C109.512 3.89307 109.974 3.79346 110.517 3.79346H114.41C114.708 3.79346 115.029 3.84603 115.373 3.95117C115.721 4.05632 116.042 4.22786 116.335 4.46582C116.634 4.69824 116.883 5.00537 117.083 5.38721C117.282 5.76351 117.381 6.22282 117.381 6.76514ZM127.508 9.73682C127.508 10.1076 127.461 10.4424 127.367 10.7412C127.273 11.0345 127.149 11.2946 126.994 11.5215C126.839 11.7428 126.659 11.9338 126.454 12.0942C126.249 12.2492 126.034 12.3765 125.807 12.4761C125.585 12.5757 125.358 12.6504 125.126 12.7002C124.899 12.7445 124.683 12.7666 124.479 12.7666H118.635V10.6084H124.462C124.755 10.6084 124.977 10.5337 125.126 10.3843C125.275 10.2349 125.35 10.019 125.35 9.73682C125.322 9.1613 125.032 8.87354 124.479 8.87354H121.133C120.657 8.87354 120.253 8.79053 119.921 8.62451C119.589 8.4585 119.318 8.25098 119.108 8.00195C118.903 7.75293 118.754 7.48454 118.66 7.19678C118.571 6.90902 118.527 6.64062 118.527 6.3916C118.527 5.91016 118.613 5.50618 118.784 5.17969C118.956 4.84766 119.172 4.57926 119.432 4.37451C119.692 4.16976 119.974 4.02311 120.278 3.93457C120.583 3.84049 120.868 3.79346 121.133 3.79346H126.438V5.95166H121.15C121.039 5.95166 120.951 5.96549 120.884 5.99316C120.823 6.0153 120.776 6.0485 120.743 6.09277C120.715 6.13151 120.699 6.17578 120.693 6.22559C120.688 6.26986 120.685 6.31413 120.685 6.3584C120.691 6.44694 120.707 6.51611 120.735 6.56592C120.763 6.61572 120.796 6.65169 120.834 6.67383C120.879 6.69596 120.926 6.7098 120.976 6.71533C121.031 6.71533 121.083 6.71533 121.133 6.71533H124.479C125.032 6.71533 125.502 6.81494 125.89 7.01416C126.277 7.21338 126.59 7.46517 126.828 7.76953C127.066 8.06836 127.237 8.39486 127.342 8.74902C127.453 9.10319 127.508 9.43245 127.508 9.73682Z" fill="#605DEC"/>
</svg>
